<?xml version="1.0" encoding="UTF-8"?>
<svg id="Capa_1" xmlns="http://www.w3.org/2000/svg" viewBox="0 0 1008.75 808.26">
  <defs>
    <style>
      .cls-1 {
        fill: #fff;
      }
    </style>
  </defs>
  <g>
    <path class="cls-1" d="M789.24,0l-15.61,37.71-88.61,45.08-273.19,138.92-69.6,35.29-24.53,12.51-64.27,32.67,20.36-40.13,85.12-43.24c-11.05-.68-22.1-1.45-33.15-2.33,1.07-11.05,1.94-21.23,3-31.41,2.04-20.45,2.13-41.2,9.31-60.98,15.51-43.14,45.18-73.48,86.57-91.51,70.77-30.92,141.44-29.28,209.78,7.56,11.83,6.4,22.49,13.86,31.89,22.39L789.24,0Z"/>
    <path class="cls-1" d="M366.98,364.68c.76-5.6,1.42-10.71,2.14-15.81,2.27-16,10.53-25.66,27.14-29.11,18.35-3.82,33.82-14.38,49.34-24.51,14.91-9.73,29.71-19.79,45.36-28.21,21.12-11.35,43.18-10.92,64.27.38,13.4,7.18,26.19,15.59,38.82,24.1,19.33,13.01,38.89,25.2,62.03,30.56,4.31,1,9.18,3.8,11.76,7.28,9.57,12.92,13.53,28.76,8.3,43.24-7.26,20.08-18.52,38.74-33.8,54.37-5.81,5.95-7.54,6.05-14.25,1.26-19.24-13.73-38.41-27.57-57.8-41.08-5.97-4.16-12.49-7.56-18.89-11.05-19.79-10.79-39.82-10.53-58.93.93-17.65,10.59-34.56,22.45-51.64,33.99-8.36,5.65-16.45,11.73-24.48,17.86-4.56,3.48-8.17,3.42-12.36-.78-15.92-15.98-25.92-35.69-35.46-55.69-1.15-2.41-1.11-5.4-1.55-7.72Z"/>
    <path class="cls-1" d="M759.19,398.73c-14.54-43.72-25.59-88.22-33.15-133.68-1.45-8.82-2.91-17.64-4.46-26.85-1.36.78-2.13,1.07-2.71,1.65-14.25,11.05-22.68,26.27-29.18,42.56-2.81,6.88-.78,13.86,4.36,19.78,4.07,4.75,7.85,9.6,11.63,14.64,8.82,11.73,10.28,24.33,5.82,38.39-10.95,35.09-31.99,63.98-55.74,91.13-8.73,10.08-14.35,10.76-25.79,3.97-22.78-13.57-45.17-27.53-68.25-40.52-13.09-7.46-27.24-12.8-42.95-11.73-14.93.97-28.5,6.69-41.1,14.06-21.52,12.7-42.56,26.08-63.79,39.07-9.5,5.72-16.19,4.65-23.46-3.68-6.59-7.66-13.09-15.41-19.29-23.36-16.67-21.33-29.96-44.5-37.91-70.57-3.1-10.18-2.91-19.78,1.45-28.79l198.15-100.72h.1c61.85-.29,123.8-2.81,185.94-7.56-1.07-10.66-1.94-20.26-2.91-29.86-1.46-14.74-1.75-29.76-4.65-44.21-.58-2.81-1.16-5.53-1.84-8.14l30.25-15.41,15.61-37.81-54.87,27.92-225.49,114.59-118.85,60.49-45.76,23.17-70.48,35.87-20.36,40.23,82.79-42.07c-5.33,20.45-11.24,40.72-17.93,60.88-4.56,13.67-3.88,27.34,2.42,40.23,16.29,33.44,33.25,66.5,54.87,96.94,3.59,4.94,7.95,9.79,12.89,13.28,15.22,10.66,32.28,11.83,50.02,7.76,16.97-3.88,33.83-7.95,50.8-11.73,35.58-7.85,71.45-11.54,107.51-4.56,27.24,5.14,54.19,11.54,81.33,17.16,22.69,4.65,46.92-3.49,59.91-23.17,19.19-29.08,35.58-59.72,51.38-90.74,8.14-15.9,9.31-31.7,3.69-48.57ZM303.26,382.83c-.87-1.65-.29-3.59,1.36-4.46l14.93-7.85c1.65-.87,3.59-.19,4.46,1.36.1.29,0,.58,0,.87.29,1.45-.1,2.91-1.36,3.59l-15.03,7.85c-1.55.77-3.59.19-4.36-1.36ZM307.53,391.94c-.87-1.55-.19-3.49,1.36-4.36l15.03-7.85c1.55-.87,3.49-.29,4.36,1.36.87,1.55.19,3.59-1.36,4.36l-14.93,7.95c-1.65.78-3.59.19-4.46-1.45ZM312.28,400.47c-.87-1.55-.29-3.59,1.36-4.36l14.93-7.95c1.65-.78,3.59-.19,4.46,1.45.77,1.55.19,3.49-1.36,4.36l-15.03,7.85c-1.55.87-3.59.29-4.36-1.36ZM316.55,409.58c-.78-1.65-.19-3.59,1.45-4.46l14.93-7.85c1.55-.87,3.59-.19,4.36,1.36.87,1.55.29,3.59-1.36,4.36l-14.93,7.95c-1.55.78-3.59.19-4.46-1.36ZM321.59,417.92c-.87-1.65-.29-3.59,1.36-4.46l14.93-7.85c1.55-.87,3.59-.19,4.36,1.36.87,1.65.29,3.59-1.36,4.46l-14.93,7.85c-1.55.78-3.59.19-4.36-1.36ZM325.46,427.13c-.78-1.55-.19-3.49,1.36-4.36l15.03-7.85c1.55-.87,3.59-.29,4.36,1.36.87,1.55.19,3.59-1.36,4.36l-14.93,7.95c-1.65.78-3.59.19-4.46-1.45ZM349.6,429.07l-14.93,7.95c-.29.1-.58,0-.87,0-.1.1-.19.1-.29.19,0-.1-.1-.1-.1-.1-1.26.1-2.52-.39-3.1-1.55-.87-1.55-.29-3.49,1.36-4.36l14.93-7.85c1.65-.87,3.59-.29,4.46,1.36.78,1.55.19,3.59-1.45,4.36ZM655.27,529.5c-10.76-.19-19.68-9.79-19.78-21.43-.1-12.02,8.63-21.81,19.68-22.1,11.15-.19,20.74,9.98,20.65,22.01-.19,11.73-9.6,21.62-20.55,21.52ZM714.4,436.24c-.87,1.65-2.91,2.23-4.56,1.36l-15.61-8.24c-1.65-.87-2.33-2.91-1.45-4.46.78-1.65,2.81-2.23,4.46-1.36l1.16.58h.1c1.65.87,3.39,1.84,5.04,2.71l9.4,4.94c1.65.87,2.33,2.91,1.45,4.46ZM719.25,427.91c-.87,1.55-2.91,2.13-4.56,1.26l-15.61-8.24c-1.65-.87-2.33-2.91-1.55-4.46.78-1.36,2.33-1.74,3.78-1.36.29-.1.58-.19.68-.1.78.39,1.55.87,2.42,1.36l13.28,6.98c1.65.87,2.33,2.91,1.55,4.56ZM723.13,418.6c-.87,1.55-2.91,2.13-4.56,1.26l-15.61-8.24c-1.65-.87-2.33-2.91-1.45-4.46.78-1.55,2.81-2.13,4.46-1.26l15.7,8.14c1.65.87,2.33,2.91,1.46,4.56ZM728.07,410.26c-.78,1.55-2.81,2.13-4.56,1.26l-15.61-8.24c-1.65-.87-2.33-2.91-1.45-4.46.78-1.55,2.91-2.13,4.56-1.26l1.45.78h.29c2.52,1.26,4.94,2.52,7.37,3.97l6.49,3.39c1.65.87,2.33,2.91,1.46,4.56ZM732.43,401.15c-.87,1.65-2.91,2.23-4.56,1.36l-15.61-8.24c-1.65-.87-2.33-2.91-1.55-4.46.87-1.65,2.91-2.23,4.56-1.36l15.61,8.24c1.75.87,2.33,2.91,1.55,4.46ZM737.18,392.62c-.87,1.65-2.91,2.23-4.56,1.36l-15.61-8.24c-1.74-.87-2.33-2.91-1.55-4.46.87-1.65,2.91-2.23,4.56-1.36l15.61,8.24c1.65.87,2.33,2.91,1.55,4.46ZM741.45,383.51c-.87,1.55-2.91,2.13-4.56,1.26l-15.61-8.24c-1.65-.87-2.33-2.91-1.55-4.46.87-1.55,2.91-2.13,4.56-1.26l15.61,8.14c1.65.87,2.33,2.91,1.55,4.56Z"/>
  </g>
  <g>
    <path class="cls-1" d="M31.03,771.09c3.01,9.15,10.42,14.95,28.08,14.95,16.23,0,20.69-4.66,20.69-11.36,0-7.21-4.98-11.09-27.69-15.03-40.76-7.13-47.74-20.59-47.74-36,0-23.35,22.2-35.44,50.32-35.44,39.32,0,50.98,19.99,52.33,34.32h-30.93c-1.43-5.31-4.98-12.27-22.28-12.27-12.16,0-17.93,3.85-17.93,10.36,0,6.08,4.74,8.85,24.99,12.6,43.55,8.01,50.65,21.29,50.65,38.21,0,20.59-16.2,36.7-55.17,36.7-36.62,0-52.95-16.26-56.35-37.02h31.03Z"/>
    <path class="cls-1" d="M159.52,714.73h-39.33v-24.25h109.53v24.25h-39.16v91.1h-31.03v-91.1Z"/>
    <path class="cls-1" d="M277.65,762.49v43.34h-30.64v-115.35h64.22c27.27,0,42.27,13.69,42.27,33.2,0,15.11-8.95,23.65-19.62,27.28,4.38,1.91,16.69,6.4,16.69,27.1v5.93c0,7.6-.12,16.26,1.5,21.84h-31.6c-1.97-5.06-2.32-11.66-2.32-24.36v-3.65c0-10.59-3.68-15.33-19.71-15.33h-20.78ZM277.65,739.79h26.58c12.39,0,17.65-4.53,17.65-13.33,0-8.32-5.41-13.18-17.49-13.18h-26.74v26.51Z"/>
    <path class="cls-1" d="M494.04,747.77c0,31.93-21.1,60.49-63.71,60.49-39.58,0-61.6-26.7-61.6-60.32,0-31.81,23.34-59.89,63.11-59.89s62.2,27.98,62.2,59.71ZM401.39,747.58c0,21.1,9.88,36.91,30.7,36.91s29.3-18.87,29.3-36.4c0-19.82-8.63-36.31-30.4-36.31s-29.6,17.15-29.6,35.8Z"/>
    <path class="cls-1" d="M635.31,747.77c0,31.93-21.1,60.49-63.71,60.49-39.57,0-61.6-26.7-61.6-60.32,0-31.81,23.34-59.89,63.11-59.89s62.2,27.98,62.2,59.71ZM542.65,747.58c0,21.1,9.88,36.91,30.7,36.91s29.3-18.87,29.3-36.4c0-19.82-8.63-36.31-30.4-36.31s-29.6,17.15-29.6,35.8Z"/>
    <path class="cls-1" d="M657.52,690.48h60.5c26.46,0,45.25,13.4,45.25,36.81s-17.34,38.2-45.82,38.2h-28.78v40.34h-31.15v-115.35ZM688.67,741.95h26.16c10.87,0,17.6-3.94,17.6-14.19,0-8.59-5.23-13.89-17.57-13.89h-26.19v28.08Z"/>
    <path class="cls-1" d="M875.05,758.35h-62.59v23.09h69.72l-3.52,24.39h-97.12v-115.35h96.86v24.4h-65.94v19.07h62.59v24.4Z"/>
    <path class="cls-1" d="M932.9,762.49v43.34h-30.64v-115.35h64.22c27.27,0,42.27,13.69,42.27,33.2,0,15.11-8.95,23.65-19.62,27.28,4.38,1.91,16.69,6.4,16.69,27.1v5.93c0,7.6-.12,16.26,1.5,21.84h-31.6c-1.97-5.06-2.32-11.66-2.32-24.36v-3.65c0-10.59-3.68-15.33-19.71-15.33h-20.78ZM932.9,739.79h26.58c12.39,0,17.65-4.53,17.65-13.33,0-8.32-5.41-13.18-17.49-13.18h-26.74v26.51Z"/>
  </g>
</svg>